<svg xmlns="http://www.w3.org/2000/svg" version="1.1" xmlns:xlink="http://www.w3.org/1999/xlink" viewBox="0 0 8.50836181640625 9.07095225891012"><g transform="matrix(0.8571428571428571,0,0,0.8571428571428571,1.2154802594866072,5.37737982495895)"><rect width="10.489012561644495" height="10.489012561644495" x="-1.69935552398631" y="-6.2267272589101195" fill="#ffffff"></rect><g transform="matrix(1,0,0,1,0,0)" clip-path="url(#SvgjsClipPath89042)"><g clip-path="url(#SvgjsClipPath89037fe73bde9-eb25-4e17-b1f3-941bfadd3fd7)"><path d=" M 6.607255489257431 -0.3972785876596143 L 6.180320853971207 -1.4395104336126607 C 6.149529964577701 -1.5147721853469212 6.076278331816397 -1.5639362953285936 5.994961606652684 -1.5639175229533686 L 1.0951858901954963 -1.5639175229533686 C 1.0138551413055448 -1.563951937005149 0.9405843350248201 -1.5147851716691108 0.9097881386710438 -1.4395104336126607 L 0.48296901600259295 -0.3972785876596143 C 0.4694834465566108 -0.36433848646162215 0.47329253334069116 -0.3268451334402238 0.4931272061188261 -0.29729015744631315 C 0.5129618788969632 -0.2677351814524025 0.5462156215374953 -0.2500024641391123 0.5818093126097126 -0.2500000000000009 L 6.508376688444384 -0.2500000000000009 C 6.543977197527415 -0.24998963039030642 6.577242771600506 -0.26771710701469686 6.597086571968131 -0.29727416947816376 C 6.616930372335762 -0.3268312319416298 6.620743643843891 -0.36433217601355583 6.607255489257431 -0.39727858765961344 Z M 4.04287537471358 -0.43840107958653274 L 3.047349130546442 -0.43840107958653274 C 3.0141140829330504 -0.4384010778560423 2.9834036317523593 -0.4561317636846507 2.9667861074374935 -0.48491415892044465 C 2.950168583122632 -0.5136965541562395 2.9501685831067026 -0.5491579279547016 2.9667861073957176 -0.5779403232054223 C 2.983403631684728 -0.6067227184561421 3.0141140828494946 -0.6244534043123346 3.0473491304628864 -0.6244534026116959 L 4.04283687050766 -0.6244534026116959 C 4.094213798971082 -0.6244533999365895 4.135863027199607 -0.5828041695207604 4.135863027176532 -0.5314272410573357 C 4.135863027153455 -0.48005031259391107 4.094213798887521 -0.438401082215492 4.042836870424099 -0.43840107958653274 Z" fill="#006fbf" transform="matrix(1,0,0,1,0,0)" fill-rule="nonzero"></path></g><g clip-path="url(#SvgjsClipPath89037fe73bde9-eb25-4e17-b1f3-941bfadd3fd7)"><path d=" M 5.732940485339306 -4.585612091257539 C 5.8378965134125576 -4.586874999410347 5.9240458051875695 -4.502896669788063 5.925461514959714 -4.397942591583564 L 5.925461514959714 -2.1678559928725925 C 5.9240458051875695 -2.062901914668093 5.8378965134125576 -1.9789235850458091 5.732940485339306 -1.9801864931986177 L 4.400694960366074 -1.9801864931986177 L 3.80645955033972 -2.5743448948131245 C 3.7764376013688525 -2.604539921569474 3.765056733344689 -2.648591095086029 3.776695799160403 -2.6895494789379772 C 3.807768693341139 -2.8003260793815605 3.796217431563909 -2.9118727639436255 3.7355733072334822 -2.9725168882740545 C 3.653020289732254 -3.0550699057752855 3.433007257082052 -3.1519464878802754 3.325349497318316 -3.140125696661583 L 3.5634210025469155 -2.9020541914329847 L 3.461269344230323 -2.6773051414541187 L 3.236520294251459 -2.57515348313753 L 2.9984487890228593 -2.8132249883661276 C 2.9866279978041663 -2.7054132117786986 3.083504579909157 -2.4855541959521914 3.166057597410386 -2.40300117845096 C 3.2267017217408167 -2.3423570541205314 3.3382484063028817 -2.3308057923433063 3.4490250067464654 -2.3618786865240406 C 3.489983390598414 -2.3735177523397564 3.534034564114968 -2.362136884315593 3.5642295908713164 -2.3321149353447255 L 4.139212897935632 -1.7571316282804115 L 5.875752585111721 -1.7571316282804115 C 5.99714106427937 -1.7571528909325451 6.0955345943885835 -1.8555636588711435 6.095534592526375 -1.9769521399009946 L 6.095534592526375 -4.588846444555161 C 6.095534592526375 -4.71023492895725 5.997141060907458 -4.808645695386406 5.875752581739485 -4.808666956176335 L 3.167366740411805 -4.808666956176335 L 3.39042160533001 -4.585612091257539 Z" fill="#000000" transform="matrix(1,0,0,1,0,0)" fill-rule="nonzero"></path></g><g clip-path="url(#SvgjsClipPath89037fe73bde9-eb25-4e17-b1f3-941bfadd3fd7)"><path d=" M 1.2145489285601474 -1.7571316282804115 L 3.9228192606422922 -1.7571316282804115 L 3.699764395724083 -1.9801864931986177 L 1.3573225241266442 -1.9801864931986177 C 1.2523664960533964 -1.9789235850458096 1.1662172042783805 -2.062901914668093 1.1648014945062348 -2.1678559928725925 L 1.1648014945062348 -4.397942591583564 C 1.1662172042783805 -4.502896669788063 1.2523664960533964 -4.586874999410347 1.3573225241266442 -4.585612091257539 L 2.6895680490998757 -4.585612091257539 L 3.283687946508457 -3.9914536896430315 C 3.3137319428690852 -3.9612712226206326 3.3251161355163807 -3.917207180705111 3.31345169768777 -3.8762491055181787 C 3.282378803507038 -3.7654725050745954 3.293930065284264 -3.6539258205125305 3.3545741896146906 -3.5932816961821015 C 3.4371272071159233 -3.51072867868087 3.657140239766125 -3.4138520965758805 3.7647979995298564 -3.425672887794573 L 3.5267264943012617 -3.6637443930231712 L 3.6288781526178493 -3.888493443002037 L 3.853627202596714 -3.9906451013186257 L 4.091698707825313 -3.752573596090028 C 4.1035194990440065 -3.860385372677457 4.00664291693902 -4.0802443885039645 3.924089899437787 -4.162797406005195 C 3.863445775107356 -4.2234415303356245 3.7519375947512157 -4.234992792112849 3.6411224901017074 -4.203919897932115 C 3.6001641062497627 -4.1922808321164 3.556112932733204 -4.203661700140563 3.5259179059768564 -4.2336836491114305 L 2.9510886157362384 -4.8086669561757445 L 1.2145489285601474 -4.8086669561757445 C 1.0931604493924985 -4.808645693523611 0.9947669192832799 -4.710234925585013 0.994766921145486 -4.588846444555162 L 0.994766921145486 -1.9770291483128428 C 0.9947464940128308 -1.9187224531757026 1.0178917850022624 -1.8627962961115965 1.05911001392965 -1.8215564037843044 C 1.1003282428570333 -1.7803165114570123 1.156242230738746 -1.7571418378215933 1.2145489285601996 -1.7571316282804115 Z" fill="#006fbf" transform="matrix(1,0,0,1,0,0)" fill-rule="nonzero"></path></g></g><g><path d=" M 0.171 1.34625 Q 0.051000000000000004 1.2705 0.051000000000000004 1.1145 Q 0.051000000000000004 1.032 0.0795 0.9884999999999999 Q 0.108 0.9449999999999998 0.1635 0.9449999999999998 Q 0.20400000000000001 0.9449999999999998 0.2295 0.966 Q 0.255 0.9869999999999999 0.255 1.02 Q 0.255 1.0499999999999998 0.2505 1.0724999999999998 Q 0.2505 1.0785 0.24825 1.0935 Q 0.246 1.1084999999999998 0.246 1.125 Q 0.246 1.1925 0.31425000000000003 1.2254999999999998 Q 0.3825 1.2585 0.5055000000000001 1.2585 Q 0.633 1.2585 0.705 1.21275 Q 0.777 1.1669999999999998 0.777 1.0844999999999998 Q 0.777 1.0334999999999999 0.744 0.9967499999999999 Q 0.711 0.96 0.6615 0.9352499999999999 Q 0.612 0.9104999999999999 0.522 0.8744999999999999 Q 0.40650000000000003 0.8294999999999999 0.33375 0.7889999999999999 Q 0.261 0.7484999999999999 0.20925 0.6787499999999999 Q 0.1575 0.6089999999999999 0.1575 0.5055 Q 0.1575 0.39749999999999996 0.21525 0.3134999999999999 Q 0.273 0.22949999999999982 0.38175000000000003 0.18299999999999983 Q 0.4905 0.13649999999999984 0.6375000000000001 0.13649999999999984 Q 0.747 0.13649999999999984 0.8385 0.16874999999999996 Q 0.93 0.20099999999999985 0.98475 0.2669999999999999 Q 1.0395 0.33299999999999996 1.0395 0.42899999999999994 Q 1.0395 0.5234999999999999 1.0110000000000001 0.5714999999999999 Q 0.9825 0.6194999999999999 0.927 0.6194999999999999 Q 0.888 0.6194999999999999 0.86175 0.5954999999999999 Q 0.8355 0.5714999999999999 0.8355 0.5384999999999999 Q 0.8355 0.5099999999999999 0.84 0.4859999999999999 Q 0.8445 0.44099999999999995 0.8445 0.42899999999999994 Q 0.8445 0.3659999999999999 0.783 0.33299999999999996 Q 0.7215 0.2999999999999998 0.63 0.2999999999999998 Q 0.501 0.2999999999999998 0.43275 0.34724999999999984 Q 0.3645 0.39449999999999985 0.3645 0.47999999999999987 Q 0.3645 0.5369999999999999 0.39975 0.5774999999999999 Q 0.435 0.6179999999999999 0.4875 0.6449999999999999 Q 0.54 0.6719999999999999 0.6345000000000001 0.7094999999999999 Q 0.7485 0.7559999999999999 0.8175 0.7934999999999999 Q 0.8865000000000001 0.831 0.93525 0.8955 Q 0.984 0.96 0.984 1.0545 Q 0.984 1.2315 0.84975 1.3267499999999999 Q 0.7155 1.422 0.4905 1.422 Q 0.291 1.422 0.171 1.34625 M 1.79622509765625 1.0935 Q 1.80747509765625 1.1115 1.80747509765625 1.1429999999999998 Q 1.80747509765625 1.2029999999999998 1.7789750976562502 1.236 Q 1.71447509765625 1.3155 1.6379750976562502 1.3664999999999998 Q 1.56147509765625 1.4175 1.46247509765625 1.4175 Q 1.1564750976562501 1.4175 1.1564750976562501 0.9869999999999999 Q 1.1564750976562501 0.9209999999999999 1.16097509765625 0.8534999999999999 L 1.10247509765625 0.8534999999999999 Q 1.05747509765625 0.8534999999999999 1.04172509765625 0.8369999999999999 Q 1.02597509765625 0.8204999999999999 1.02597509765625 0.7844999999999999 Q 1.02597509765625 0.7004999999999999 1.09347509765625 0.7004999999999999 L 1.17897509765625 0.7004999999999999 Q 1.20447509765625 0.5354999999999999 1.25697509765625 0.3989999999999998 Q 1.3094750976562501 0.26249999999999996 1.38372509765625 0.1815 Q 1.45797509765625 0.10049999999999981 1.5434750976562501 0.10049999999999981 Q 1.6064750976562499 0.10049999999999981 1.6424750976562499 0.15599999999999992 Q 1.67847509765625 0.2114999999999998 1.67847509765625 0.2954999999999999 Q 1.67847509765625 0.5279999999999999 1.48347509765625 0.7004999999999999 L 1.65147509765625 0.7004999999999999 Q 1.67547509765625 0.7004999999999999 1.68597509765625 0.7109999999999999 Q 1.6964750976562502 0.7214999999999999 1.6964750976562502 0.7499999999999999 Q 1.6964750976562502 0.8534999999999999 1.52697509765625 0.8534999999999999 L 1.3439750976562501 0.8534999999999999 Q 1.34097509765625 0.9284999999999999 1.34097509765625 0.9704999999999999 Q 1.34097509765625 1.1264999999999998 1.37772509765625 1.1895 Q 1.4144750976562501 1.2525 1.49397509765625 1.2525 Q 1.55847509765625 1.2525 1.60797509765625 1.2134999999999998 Q 1.65747509765625 1.1744999999999999 1.72497509765625 1.0964999999999998 Q 1.7429750976562501 1.0755 1.76547509765625 1.0755 Q 1.78497509765625 1.0755 1.79622509765625 1.0935 M 1.45272509765625 0.30074999999999985 Q 1.42497509765625 0.357 1.40022509765625 0.4567499999999999 Q 1.37547509765625 0.5564999999999999 1.35897509765625 0.6779999999999999 Q 1.44747509765625 0.6014999999999999 1.49172509765625 0.5062499999999999 Q 1.53597509765625 0.4109999999999999 1.53597509765625 0.33299999999999996 Q 1.53597509765625 0.24449999999999994 1.50297509765625 0.24449999999999994 Q 1.48047509765625 0.24449999999999994 1.45272509765625 0.30074999999999985 M 1.721983154296875 1.3499999999999999 Q 1.666483154296875 1.2825 1.666483154296875 1.1729999999999998 Q 1.666483154296875 1.053 1.721983154296875 0.9457499999999999 Q 1.777483154296875 0.8384999999999999 1.869733154296875 0.7732499999999999 Q 1.961983154296875 0.7079999999999999 2.0654831542968752 0.7079999999999999 Q 2.098483154296875 0.7079999999999999 2.109733154296875 0.7207499999999999 Q 2.120983154296875 0.7334999999999999 2.128483154296875 0.7665 Q 2.1599831542968753 0.7605 2.194483154296875 0.7605 Q 2.267983154296875 0.7605 2.267983154296875 0.813 Q 2.267983154296875 0.8444999999999999 2.245483154296875 0.9629999999999999 Q 2.210983154296875 1.1355 2.210983154296875 1.2029999999999998 Q 2.210983154296875 1.2254999999999998 2.222233154296875 1.2389999999999999 Q 2.233483154296875 1.2525 2.251483154296875 1.2525 Q 2.279983154296875 1.2525 2.320483154296875 1.2157499999999999 Q 2.360983154296875 1.1789999999999998 2.429983154296875 1.0964999999999998 Q 2.447983154296875 1.0755 2.470483154296875 1.0755 Q 2.489983154296875 1.0755 2.501233154296875 1.0935 Q 2.512483154296875 1.1115 2.512483154296875 1.1429999999999998 Q 2.512483154296875 1.2029999999999998 2.483983154296875 1.236 Q 2.422483154296875 1.3125 2.353483154296875 1.365 Q 2.284483154296875 1.4175 2.219983154296875 1.4175 Q 2.1704831542968748 1.4175 2.129233154296875 1.3837499999999998 Q 2.087983154296875 1.3499999999999999 2.066983154296875 1.2914999999999999 Q 1.988983154296875 1.4175 1.870483154296875 1.4175 Q 1.777483154296875 1.4175 1.721983154296875 1.3499999999999999 M 1.987483154296875 1.2269999999999999 Q 2.017483154296875 1.188 2.030983154296875 1.1235 L 2.086483154296875 0.8474999999999999 Q 2.023483154296875 0.8489999999999999 1.970233154296875 0.8947499999999999 Q 1.916983154296875 0.9404999999999999 1.885483154296875 1.0154999999999998 Q 1.853983154296875 1.0905 1.853983154296875 1.1744999999999999 Q 1.853983154296875 1.2209999999999999 1.872733154296875 1.2434999999999998 Q 1.891483154296875 1.266 1.924483154296875 1.266 Q 1.9574831542968751 1.266 1.987483154296875 1.2269999999999999 M 3.0531892089843753 0.9397499999999999 Q 3.0764392089843753 0.9629999999999999 3.0764392089843753 0.9974999999999998 Q 3.0764392089843753 1.017 3.067439208984375 1.0394999999999999 Q 3.043439208984375 1.095 2.999939208984375 1.1324999999999998 Q 2.956439208984375 1.17 2.903939208984375 1.17 Q 2.861939208984375 1.17 2.832689208984375 1.14 Q 2.803439208984375 1.1099999999999999 2.803439208984375 1.059 Q 2.803439208984375 1.0305 2.806439208984375 0.9974999999999998 Q 2.809439208984375 0.9734999999999999 2.809439208984375 0.9644999999999999 Q 2.809439208984375 0.9524999999999999 2.804189208984375 0.9464999999999999 Q 2.798939208984375 0.9404999999999999 2.791439208984375 0.9404999999999999 Q 2.7704392089843752 0.9404999999999999 2.734439208984375 0.9907499999999999 Q 2.698439208984375 1.041 2.662439208984375 1.1235 Q 2.626439208984375 1.206 2.603939208984375 1.2974999999999999 Q 2.587439208984375 1.3695 2.566439208984375 1.3935 Q 2.545439208984375 1.4175 2.497439208984375 1.4175 Q 2.440439208984375 1.4175 2.417189208984375 1.3575 Q 2.393939208984375 1.2974999999999999 2.393939208984375 1.1655 Q 2.393939208984375 0.9704999999999999 2.449439208984375 0.7949999999999999 Q 2.462939208984375 0.7515 2.493689208984375 0.73125 Q 2.524439208984375 0.7109999999999999 2.579939208984375 0.7109999999999999 Q 2.609939208984375 0.7109999999999999 2.621939208984375 0.7184999999999999 Q 2.633939208984375 0.7259999999999999 2.633939208984375 0.7469999999999999 Q 2.633939208984375 0.7709999999999999 2.611439208984375 0.8549999999999999 Q 2.596439208984375 0.9149999999999999 2.587439208984375 0.96 Q 2.578439208984375 1.005 2.572439208984375 1.071 Q 2.621939208984375 0.942 2.683439208984375 0.8609999999999999 Q 2.744939208984375 0.7799999999999999 2.803439208984375 0.7454999999999999 Q 2.861939208984375 0.7109999999999999 2.909939208984375 0.7109999999999999 Q 2.953439208984375 0.7109999999999999 2.976689208984375 0.7357499999999999 Q 2.999939208984375 0.7605 2.999939208984375 0.8084999999999999 Q 2.999939208984375 0.8369999999999999 2.983439208984375 0.9164999999999999 L 2.996939208984375 0.9164999999999999 Q 3.029939208984375 0.9164999999999999 3.0531892089843753 0.9397499999999999 M 4.171453857421875 1.053 Q 4.171453857421875 1.1715 3.985453857421875 1.1715 Q 3.949453857421875 1.1715 3.881953857421875 1.158 Q 3.901453857421875 1.251 3.914203857421875 1.36425 Q 3.926953857421875 1.4775 3.926953857421875 1.551 Q 3.926953857421875 1.7129999999999999 3.874453857421875 1.7985 Q 3.821953857421875 1.884 3.736453857421875 1.884 Q 3.628453857421875 1.884 3.582703857421875 1.7309999999999999 Q 3.536953857421875 1.5779999999999998 3.536953857421875 1.269 Q 3.536953857421875 0.9809999999999999 3.599203857421875 0.6847499999999999 Q 3.661453857421875 0.38849999999999985 3.7702038574218752 0.1942499999999998 Q 3.878953857421875 0 4.0094538574218745 0 Q 4.079953857421875 0 4.119703857421875 0.06299999999999994 Q 4.159453857421875 0.1259999999999999 4.159453857421875 0.23249999999999993 Q 4.159453857421875 0.5849999999999999 3.737953857421875 1.0005 Q 3.7229538574218752 1.1475 3.7229538574218752 1.2585 Q 3.7229538574218752 1.4129999999999998 3.733453857421875 1.57575 Q 3.743953857421875 1.7385 3.767953857421875 1.7385 Q 3.812953857421875 1.7385 3.812953857421875 1.5825 Q 3.812953857421875 1.4655 3.797203857421875 1.3559999999999999 Q 3.781453857421875 1.2465 3.754453857421875 1.125 Q 3.752953857421875 1.1055 3.767203857421875 1.0755 Q 3.781453857421875 1.0454999999999999 3.802453857421875 1.023 Q 3.823453857421875 1.0005 3.8399538574218752 1.0005 Q 3.869953857421875 1.0005 3.911953857421875 1.0034999999999998 Q 3.925453857421875 1.005 3.943453857421875 1.005 Q 4.003453857421875 1.005 4.076953857421875 0.9944999999999999 Q 4.088953857421875 0.9929999999999999 4.1024538574218745 0.9914999999999999 Q 4.115953857421875 0.99 4.129453857421875 0.99 Q 4.171453857421875 0.99 4.171453857421875 1.053 M 3.911203857421875 0.24 Q 3.871453857421875 0.3314999999999999 3.832453857421875 0.48224999999999985 Q 3.7934538574218752 0.6329999999999999 3.764953857421875 0.8009999999999999 Q 3.884953857421875 0.6644999999999999 3.949453857421875 0.5167499999999999 Q 4.013953857421875 0.369 4.015453857421875 0.24 Q 4.015453857421875 0.14849999999999985 3.977953857421875 0.14849999999999985 Q 3.950953857421875 0.14849999999999985 3.911203857421875 0.24 M 4.100132080078125 1.3552499999999998 Q 4.057382080078125 1.293 4.057382080078125 1.2 Q 4.057382080078125 1.0875 4.072382080078125 0.9937499999999999 Q 4.087382080078125 0.8999999999999999 4.121882080078125 0.7949999999999999 Q 4.136882080078125 0.7499999999999999 4.163882080078125 0.7304999999999999 Q 4.190882080078125 0.7109999999999999 4.249382080078125 0.7109999999999999 Q 4.282382080078125 0.7109999999999999 4.295132080078125 0.7214999999999999 Q 4.307882080078125 0.7319999999999999 4.307882080078125 0.7529999999999999 Q 4.307882080078125 0.7649999999999999 4.291382080078125 0.8339999999999999 Q 4.276382080078125 0.8895 4.267382080078125 0.9344999999999999 Q 4.237382080078125 1.0919999999999999 4.237382080078125 1.1444999999999999 Q 4.237382080078125 1.176 4.244882080078125 1.18875 Q 4.252382080078125 1.2015 4.268882080078125 1.2015 Q 4.291382080078125 1.2015 4.325132080078125 1.1564999999999999 Q 4.358882080078125 1.1115 4.397132080078125 1.02 Q 4.435382080078125 0.9284999999999999 4.471382080078125 0.7949999999999999 Q 4.483382080078125 0.7499999999999999 4.508132080078125 0.7304999999999999 Q 4.532882080078125 0.7109999999999999 4.5823820800781245 0.7109999999999999 Q 4.616882080078125 0.7109999999999999 4.630382080078125 0.71925 Q 4.643882080078125 0.7274999999999999 4.643882080078125 0.7499999999999999 Q 4.643882080078125 0.7874999999999999 4.606382080078125 0.9554999999999999 Q 4.564382080078125 1.1475 4.564382080078125 1.1925 Q 4.564382080078125 1.2209999999999999 4.576382080078125 1.2367499999999998 Q 4.588382080078125 1.2525 4.6078820800781255 1.2525 Q 4.637882080078125 1.2525 4.679132080078125 1.2157499999999999 Q 4.720382080078125 1.1789999999999998 4.789382080078125 1.0964999999999998 Q 4.807382080078125 1.0755 4.829882080078125 1.0755 Q 4.849382080078125 1.0755 4.860632080078125 1.0935 Q 4.871882080078125 1.1115 4.871882080078125 1.1429999999999998 Q 4.871882080078125 1.2029999999999998 4.843382080078125 1.236 Q 4.778882080078125 1.3155 4.704632080078125 1.3664999999999998 Q 4.630382080078125 1.4175 4.5358820800781245 1.4175 Q 4.463882080078125 1.4175 4.430132080078125 1.3619999999999999 Q 4.396382080078125 1.3065 4.396382080078125 1.206 Q 4.370882080078125 1.3079999999999998 4.319882080078125 1.36275 Q 4.268882080078125 1.4175 4.210382080078125 1.4175 Q 4.142882080078125 1.4175 4.100132080078125 1.3552499999999998 M 4.9100947265625 1.4144999999999999 Q 4.8688447265625 1.3784999999999998 4.8688447265625 1.3335 Q 4.8688447265625 1.2945 4.8973447265625 1.266 Q 4.9258447265625 1.2374999999999998 4.9813447265625 1.2374999999999998 Q 5.0008447265625 1.2374999999999998 5.0270947265625 1.24125 Q 5.0533447265625 1.2449999999999999 5.0668447265625 1.2465 Q 5.0653447265625005 1.2075 5.0495947265625 1.1729999999999998 Q 5.0338447265625 1.1384999999999998 5.0098447265625 1.10625 Q 4.9858447265625 1.0739999999999998 4.9648447265625 1.0499999999999998 Q 4.9183447265625 1.1384999999999998 4.8725947265625 1.1969999999999998 Q 4.8268447265625 1.2554999999999998 4.7728447265625 1.3079999999999998 Q 4.7458447265625 1.335 4.7158447265625 1.335 Q 4.6918447265625 1.335 4.6768447265625 1.31775 Q 4.6618447265625 1.3005 4.6618447265625 1.275 Q 4.6618447265625 1.2449999999999999 4.6828447265625 1.2195 L 4.7023447265625 1.1955 Q 4.7848447265625 1.0935 4.8268447265625 1.0274999999999999 Q 4.8523447265625 0.984 4.8868447265625 0.9112499999999999 Q 4.9213447265625 0.8384999999999999 4.9543447265625 0.7605 Q 4.9828447265625 0.6944999999999999 5.0728447265625 0.6944999999999999 Q 5.1148447265625 0.6944999999999999 5.1313447265625 0.702 Q 5.1478447265625 0.7094999999999999 5.1478447265625 0.7259999999999999 Q 5.1478447265625 0.7349999999999999 5.1418447265625 0.7545 Q 5.1358447265625 0.7739999999999999 5.1253447265625 0.7934999999999999 Q 5.0983447265625 0.8474999999999999 5.0983447265625 0.8849999999999999 Q 5.0983447265625 0.9074999999999999 5.1140947265625 0.9344999999999999 Q 5.1298447265625 0.9614999999999999 5.1628447265625 1.0019999999999998 Q 5.2108447265625 1.065 5.2355947265625 1.1092499999999998 Q 5.2603447265625 1.1535 5.2603447265625 1.206 Q 5.2603447265625 1.2209999999999999 5.2573447265625 1.248 Q 5.3308447265625 1.2195 5.4298447265625 1.0964999999999998 Q 5.4478447265625 1.0755 5.4703447265625 1.0755 Q 5.4898447265625 1.0755 5.5010947265625 1.0935 Q 5.5123447265625 1.1115 5.5123447265625 1.1429999999999998 Q 5.5123447265625 1.2 5.4838447265625 1.236 Q 5.4088447265625 1.329 5.3405947265625 1.36275 Q 5.2723447265625 1.3964999999999999 5.1718447265625 1.3995 Q 5.1118447265625 1.4505 5.0293447265625 1.4505 Q 4.9513447265625 1.4505 4.9100947265625 1.4144999999999999 M 5.49284765625 0.5827499999999999 Q 5.46134765625 0.5534999999999999 5.46134765625 0.5009999999999999 Q 5.46134765625 0.4484999999999999 5.50259765625 0.4132499999999999 Q 5.54384765625 0.3779999999999999 5.60534765625 0.3779999999999999 Q 5.66084765625 0.3779999999999999 5.69534765625 0.4049999999999998 Q 5.72984765625 0.43199999999999994 5.72984765625 0.48149999999999993 Q 5.72984765625 0.5414999999999999 5.69084765625 0.5767499999999999 Q 5.65184765625 0.6119999999999999 5.58734765625 0.6119999999999999 Q 5.52434765625 0.6119999999999999 5.49284765625 0.5827499999999999 M 5.43359765625 1.3485 Q 5.38934765625 1.2794999999999999 5.38934765625 1.1655 Q 5.38934765625 1.0979999999999999 5.40659765625 0.9922499999999999 Q 5.42384765625 0.8865 5.45084765625 0.7949999999999999 Q 5.46434765625 0.7469999999999999 5.48684765625 0.7289999999999999 Q 5.50934765625 0.7109999999999999 5.55884765625 0.7109999999999999 Q 5.63534765625 0.7109999999999999 5.63534765625 0.7619999999999999 Q 5.63534765625 0.7994999999999999 5.60684765625 0.9359999999999999 Q 5.57084765625 1.101 5.57084765625 1.1595 Q 5.57084765625 1.2045 5.58284765625 1.2285 Q 5.59484765625 1.2525 5.62334765625 1.2525 Q 5.65034765625 1.2525 5.69084765625 1.2149999999999999 Q 5.73134765625 1.1775 5.79884765625 1.0964999999999998 Q 5.81684765625 1.0755 5.83934765625 1.0755 Q 5.85884765625 1.0755 5.87009765625 1.0935 Q 5.88134765625 1.1115 5.88134765625 1.1429999999999998 Q 5.88134765625 1.2029999999999998 5.85284765625 1.236 Q 5.70434765625 1.4175 5.57534765625 1.4175 Q 5.47784765625 1.4175 5.43359765625 1.3485 M 6.55480517578125 0.9689999999999999 Q 6.56530517578125 0.9884999999999999 6.56530517578125 1.0185 Q 6.56530517578125 1.0905 6.52180517578125 1.1039999999999999 Q 6.43180517578125 1.1355 6.32380517578125 1.14 Q 6.29530517578125 1.266 6.21130517578125 1.34175 Q 6.12730517578125 1.4175 6.02080517578125 1.4175 Q 5.93080517578125 1.4175 5.86705517578125 1.3739999999999999 Q 5.80330517578125 1.3305 5.77030517578125 1.2585 Q 5.73730517578125 1.1864999999999999 5.73730517578125 1.1025 Q 5.73730517578125 0.9884999999999999 5.78080517578125 0.8992499999999999 Q 5.82430517578125 0.8099999999999999 5.90080517578125 0.7597499999999999 Q 5.97730517578125 0.7094999999999999 6.07030517578125 0.7094999999999999 Q 6.18430517578125 0.7094999999999999 6.25405517578125 0.7882499999999999 Q 6.32380517578125 0.8669999999999999 6.33580517578125 0.9824999999999999 Q 6.40630517578125 0.978 6.50380517578125 0.9524999999999999 Q 6.51580517578125 0.9494999999999999 6.52480517578125 0.9494999999999999 Q 6.5443051757812505 0.9494999999999999 6.55480517578125 0.9689999999999999 M 6.11605517578125 1.2195 Q 6.15130517578125 1.1804999999999999 6.16330517578125 1.107 Q 6.11680517578125 1.0755 6.09205517578125 1.0245 Q 6.06730517578125 0.9734999999999999 6.06730517578125 0.9164999999999999 Q 6.06730517578125 0.8925 6.07180517578125 0.8684999999999999 L 6.06430517578125 0.8684999999999999 Q 6.00430517578125 0.8684999999999999 5.96455517578125 0.9262499999999999 Q 5.92480517578125 0.984 5.92480517578125 1.089 Q 5.92480517578125 1.1715 5.9570551757812495 1.2149999999999999 Q 5.98930517578125 1.2585 6.03280517578125 1.2585 Q 6.08080517578125 1.2585 6.11605517578125 1.2195 M 6.462538330078125 1.3575 Q 6.439288330078125 1.2974999999999999 6.439288330078125 1.1655 Q 6.439288330078125 0.9704999999999999 6.494788330078125 0.7949999999999999 Q 6.508288330078125 0.7515 6.539038330078125 0.73125 Q 6.569788330078125 0.7109999999999999 6.625288330078125 0.7109999999999999 Q 6.655288330078125 0.7109999999999999 6.667288330078125 0.7184999999999999 Q 6.679288330078125 0.7259999999999999 6.679288330078125 0.7469999999999999 Q 6.679288330078125 0.7709999999999999 6.656788330078125 0.8549999999999999 Q 6.641788330078125 0.9149999999999999 6.632788330078125 0.96 Q 6.623788330078125 1.005 6.617788330078125 1.071 Q 6.667288330078125 0.942 6.728788330078125 0.8609999999999999 Q 6.790288330078125 0.7799999999999999 6.849538330078125 0.7454999999999999 Q 6.908788330078125 0.7109999999999999 6.958288330078125 0.7109999999999999 Q 7.006288330078125 0.7109999999999999 7.031038330078125 0.7357499999999999 Q 7.055788330078125 0.7605 7.055788330078125 0.8084999999999999 Q 7.055788330078125 0.8474999999999999 7.039288330078125 0.9554999999999999 Q 7.024288330078125 1.047 7.015288330078125 1.12875 Q 7.006288330078125 1.2105 7.006288330078125 1.311 Q 7.006288330078125 1.3679999999999999 6.983038330078125 1.39275 Q 6.959788330078125 1.4175 6.907288330078125 1.4175 Q 6.857788330078125 1.4175 6.835288330078125 1.392 Q 6.812788330078125 1.3664999999999998 6.812788330078125 1.3155 Q 6.812788330078125 1.2554999999999998 6.833788330078125 1.1175 Q 6.851788330078125 0.9974999999999998 6.851788330078125 0.9644999999999999 Q 6.851788330078125 0.9404999999999999 6.835288330078125 0.9404999999999999 Q 6.815788330078125 0.9404999999999999 6.780538330078125 0.9907499999999999 Q 6.745288330078125 1.041 6.708538330078125 1.1235 Q 6.671788330078125 1.206 6.649288330078125 1.2974999999999999 Q 6.632788330078125 1.3679999999999999 6.611038330078125 1.39275 Q 6.589288330078125 1.4175 6.542788330078125 1.4175 Q 6.485788330078125 1.4175 6.462538330078125 1.3575" fill="#006fbf" fill-rule="nonzero"></path></g><g><path d=" M 1.350847778320312 2.385225 L 1.4205977783203123 2.385225 L 1.4205977783203123 2.523225 L 1.5060977783203122 2.523225 L 1.5060977783203122 2.5779750000000003 L 1.4205977783203123 2.5779750000000003 L 1.4205977783203123 2.832225 L 1.350847778320312 2.832225 L 1.350847778320312 2.5779750000000003 L 1.2938477783203122 2.5779750000000003 L 1.2938477783203122 2.523225 L 1.350847778320312 2.523225 L 1.350847778320312 2.385225 M 1.7352293701171873 2.839725 Q 1.6819793701171872 2.839725 1.6437293701171873 2.81835 Q 1.6054793701171872 2.796975 1.5848543701171873 2.75985 Q 1.5642293701171872 2.722725 1.5642293701171872 2.674725 Q 1.5642293701171872 2.628975 1.5874793701171872 2.5914750000000004 Q 1.6107293701171872 2.5539750000000003 1.6497293701171873 2.5314750000000004 Q 1.6887293701171873 2.5089750000000004 1.7367293701171873 2.5089750000000004 Q 1.7982293701171872 2.5089750000000004 1.8387293701171874 2.544975 Q 1.8792293701171872 2.580975 1.8934793701171873 2.643975 L 1.6377293701171873 2.733975 L 1.6212293701171872 2.6927250000000003 L 1.8312293701171873 2.616225 L 1.8162293701171872 2.6259750000000004 Q 1.8072293701171873 2.6012250000000003 1.7862293701171872 2.58285 Q 1.7652293701171873 2.5644750000000003 1.7314793701171873 2.5644750000000003 Q 1.7029793701171874 2.5644750000000003 1.6804793701171872 2.5783500000000004 Q 1.6579793701171872 2.592225 1.6452293701171872 2.616225 Q 1.6324793701171874 2.640225 1.6324793701171874 2.6709750000000003 Q 1.6324793701171874 2.703225 1.6459793701171872 2.7276000000000002 Q 1.6594793701171873 2.7519750000000003 1.6831043701171873 2.7658500000000004 Q 1.7067293701171873 2.779725 1.7367293701171873 2.779725 Q 1.7569793701171872 2.779725 1.7761043701171872 2.772225 Q 1.7952293701171873 2.7647250000000003 1.8117293701171873 2.7527250000000003 L 1.8439793701171872 2.804475 Q 1.8207293701171872 2.820225 1.7918543701171874 2.829975 Q 1.7629793701171872 2.839725 1.7352293701171873 2.839725 M 2.234369018554687 2.803725 Q 2.2133690185546873 2.820225 2.1841190185546875 2.829975 Q 2.1548690185546873 2.839725 2.1256190185546875 2.839725 Q 2.0746190185546873 2.839725 2.036369018554687 2.819475 Q 1.9981190185546873 2.7992250000000003 1.9767440185546874 2.7628500000000003 Q 1.9553690185546873 2.726475 1.9553690185546873 2.676975 Q 1.9553690185546873 2.627475 1.9782440185546872 2.5907250000000004 Q 2.001119018554687 2.5539750000000003 2.0382440185546873 2.5341 Q 2.0753690185546874 2.514225 2.118119018554687 2.514225 Q 2.1556190185546873 2.514225 2.1852440185546875 2.524725 Q 2.2148690185546873 2.535225 2.2358690185546872 2.5532250000000003 L 2.2013690185546873 2.5982250000000002 Q 2.187869018554687 2.5877250000000003 2.1683690185546873 2.5794750000000004 Q 2.1488690185546875 2.571225 2.1241190185546874 2.571225 Q 2.0971190185546873 2.571225 2.0742440185546873 2.5851 Q 2.0513690185546873 2.5989750000000003 2.0382440185546873 2.6229750000000003 Q 2.0251190185546872 2.6469750000000003 2.0251190185546872 2.676975 Q 2.0251190185546872 2.7054750000000003 2.0386190185546873 2.7298500000000003 Q 2.0521190185546874 2.7542250000000004 2.0761190185546874 2.7681 Q 2.1001190185546874 2.781975 2.1308690185546872 2.781975 Q 2.151119018554687 2.781975 2.1679940185546873 2.7759750000000003 Q 2.1848690185546875 2.769975 2.198369018554687 2.759475 L 2.234369018554687 2.803725 M 2.3254892578125 2.832225 L 2.3254892578125 2.2517250000000004 L 2.3937392578125 2.2517250000000004 L 2.3937392578125 2.593725 L 2.3922392578125 2.580975 Q 2.4079892578125 2.550225 2.4406142578125 2.5299750000000003 Q 2.4732392578124998 2.5097250000000004 2.5174892578124997 2.5097250000000004 Q 2.5617392578125 2.5097250000000004 2.5898642578124997 2.5356 Q 2.6179892578125 2.561475 2.6187392578125 2.6027250000000004 L 2.6187392578125 2.832225 L 2.5482392578125 2.832225 L 2.5482392578125 2.627475 Q 2.5474892578125 2.6019750000000004 2.5336142578125 2.58585 Q 2.5197392578124997 2.569725 2.4904892578125 2.569725 Q 2.4634892578125 2.569725 2.4417392578125 2.5851 Q 2.4199892578125 2.6004750000000003 2.4076142578125 2.6267250000000004 Q 2.3952392578125 2.652975 2.3952392578125 2.686725 L 2.3952392578125 2.832225 L 2.3254892578125 2.832225 M 3.0664573974609373 2.838225 Q 3.0334573974609373 2.838225 3.0023323974609375 2.8266 Q 2.9712073974609376 2.814975 2.9509573974609373 2.791725 L 2.9802073974609375 2.7512250000000003 Q 2.9997073974609374 2.769975 3.0203323974609373 2.7793500000000004 Q 3.0409573974609376 2.7887250000000003 3.0612073974609375 2.7887250000000003 Q 3.0762073974609376 2.7887250000000003 3.0889573974609377 2.784975 Q 3.1017073974609373 2.781225 3.1095823974609376 2.7726 Q 3.1174573974609374 2.7639750000000003 3.1174573974609374 2.748975 Q 3.1174573974609374 2.732475 3.1065823974609375 2.722725 Q 3.0957073974609375 2.712975 3.0788323974609373 2.7069750000000004 Q 3.0619573974609375 2.700975 3.0432073974609373 2.6957250000000004 Q 3.0049573974609376 2.6829750000000003 2.9847073974609373 2.6604750000000004 Q 2.9644573974609374 2.6379750000000004 2.9644573974609374 2.605725 Q 2.9644573974609374 2.580975 2.9768323974609374 2.5596 Q 2.9892073974609374 2.538225 3.0135823974609375 2.524725 Q 3.0379573974609375 2.511225 3.0739573974609375 2.511225 Q 3.1062073974609374 2.511225 3.1317073974609375 2.5191000000000003 Q 3.1572073974609376 2.526975 3.1797073974609376 2.544975 L 3.1519573974609374 2.5884750000000003 Q 3.1384573974609373 2.574225 3.1197073974609375 2.5674750000000004 Q 3.1009573974609372 2.560725 3.0859573974609376 2.559975 Q 3.0732073974609375 2.559225 3.0615823974609375 2.5637250000000003 Q 3.0499573974609375 2.568225 3.0424573974609372 2.5764750000000003 Q 3.0349573974609374 2.584725 3.0349573974609374 2.595975 Q 3.0349573974609374 2.6117250000000003 3.0454573974609374 2.621475 Q 3.0559573974609373 2.631225 3.0728323974609375 2.6368500000000004 Q 3.0897073974609373 2.642475 3.1062073974609374 2.6484750000000004 Q 3.1294573974609374 2.655225 3.1474573974609372 2.666475 Q 3.1654573974609375 2.677725 3.1763323974609374 2.6942250000000003 Q 3.1872073974609374 2.710725 3.1872073974609374 2.735475 Q 3.1872073974609374 2.7632250000000003 3.1740823974609373 2.7868500000000003 Q 3.1609573974609373 2.8104750000000003 3.1343323974609376 2.8243500000000004 Q 3.1077073974609375 2.838225 3.0664573974609373 2.838225 M 3.2588192138671874 2.6739750000000004 Q 3.2588192138671874 2.627475 3.2809442138671874 2.5899750000000004 Q 3.3030692138671873 2.5524750000000003 3.3420692138671875 2.5307250000000003 Q 3.3810692138671876 2.5089750000000004 3.4305692138671873 2.5089750000000004 Q 3.4815692138671874 2.5089750000000004 3.5198192138671875 2.5307250000000003 Q 3.5580692138671877 2.5524750000000003 3.5790692138671876 2.5899750000000004 Q 3.6000692138671875 2.627475 3.6000692138671875 2.6739750000000004 Q 3.6000692138671875 2.7204750000000004 3.5790692138671876 2.75835 Q 3.5580692138671877 2.796225 3.5194442138671875 2.817975 Q 3.4808192138671874 2.839725 3.4298192138671877 2.839725 Q 3.3803192138671876 2.839725 3.3416942138671875 2.8191 Q 3.3030692138671873 2.7984750000000003 3.2809442138671874 2.76135 Q 3.2588192138671874 2.724225 3.2588192138671874 2.6739750000000004 M 3.3285692138671874 2.674725 Q 3.3285692138671874 2.7047250000000003 3.3420692138671875 2.7291000000000003 Q 3.3555692138671875 2.7534750000000003 3.3784442138671875 2.7677250000000004 Q 3.4013192138671875 2.781975 3.4290692138671877 2.781975 Q 3.4583192138671874 2.781975 3.4811942138671874 2.7677250000000004 Q 3.5040692138671874 2.7534750000000003 3.5168192138671874 2.7291000000000003 Q 3.5295692138671875 2.7047250000000003 3.5295692138671875 2.674725 Q 3.5295692138671875 2.644725 3.5168192138671874 2.62035 Q 3.5040692138671874 2.595975 3.4811942138671874 2.58135 Q 3.4583192138671874 2.5667250000000004 3.4290692138671877 2.5667250000000004 Q 3.4005692138671875 2.5667250000000004 3.3776942138671875 2.581725 Q 3.3548192138671875 2.596725 3.3416942138671875 2.6211 Q 3.3285692138671874 2.6454750000000002 3.3285692138671874 2.674725 M 3.695681396484375 2.2517250000000004 L 3.765431396484375 2.2517250000000004 L 3.765431396484375 2.832225 L 3.695681396484375 2.832225 L 3.695681396484375 2.2517250000000004 M 3.98557763671875 2.8442250000000002 Q 3.94357763671875 2.8442250000000002 3.91620263671875 2.81835 Q 3.88882763671875 2.792475 3.88732763671875 2.7512250000000003 L 3.88732763671875 2.521725 L 3.95707763671875 2.521725 L 3.95707763671875 2.726475 Q 3.95857763671875 2.7519750000000003 3.9717026367187502 2.7677250000000004 Q 3.98482763671875 2.783475 4.01332763671875 2.784225 Q 4.03957763671875 2.784225 4.06020263671875 2.76885 Q 4.08082763671875 2.7534750000000003 4.09357763671875 2.72685 Q 4.10632763671875 2.700225 4.10632763671875 2.666475 L 4.10632763671875 2.521725 L 4.17607763671875 2.521725 L 4.17607763671875 2.832225 L 4.11232763671875 2.832225 L 4.10632763671875 2.7557250000000004 L 4.11007763671875 2.769225 Q 4.10107763671875 2.7909750000000004 4.08270263671875 2.80785 Q 4.06432763671875 2.8247250000000004 4.03957763671875 2.8344750000000003 Q 4.01482763671875 2.8442250000000002 3.98557763671875 2.8442250000000002 M 4.327968017578125 2.385225 L 4.397718017578125 2.385225 L 4.397718017578125 2.523225 L 4.483218017578125 2.523225 L 4.483218017578125 2.5779750000000003 L 4.397718017578125 2.5779750000000003 L 4.397718017578125 2.832225 L 4.327968017578125 2.832225 L 4.327968017578125 2.5779750000000003 L 4.2709680175781255 2.5779750000000003 L 4.2709680175781255 2.523225 L 4.327968017578125 2.523225 L 4.327968017578125 2.385225 M 4.568349609375 2.521725 L 4.638099609375 2.521725 L 4.638099609375 2.832225 L 4.568349609375 2.832225 L 4.568349609375 2.521725 M 4.5630996093750005 2.409225 Q 4.5630996093750005 2.3927250000000004 4.576224609375 2.381475 Q 4.589349609375001 2.370225 4.605099609375 2.370225 Q 4.620849609375 2.370225 4.6332246093750005 2.381475 Q 4.645599609375 2.3927250000000004 4.645599609375 2.409225 Q 4.645599609375 2.4264750000000004 4.6332246093750005 2.4373500000000003 Q 4.620849609375 2.4482250000000003 4.605099609375 2.4482250000000003 Q 4.589349609375001 2.4482250000000003 4.576224609375 2.4369750000000003 Q 4.5630996093750005 2.4257250000000004 4.5630996093750005 2.409225 M 4.732995849609376 2.6739750000000004 Q 4.732995849609376 2.627475 4.7551208496093755 2.5899750000000004 Q 4.7772458496093755 2.5524750000000003 4.816245849609375 2.5307250000000003 Q 4.855245849609375 2.5089750000000004 4.904745849609375 2.5089750000000004 Q 4.955745849609375 2.5089750000000004 4.993995849609375 2.5307250000000003 Q 5.032245849609375 2.5524750000000003 5.053245849609375 2.5899750000000004 Q 5.074245849609375 2.627475 5.074245849609375 2.6739750000000004 Q 5.074245849609375 2.7204750000000004 5.053245849609375 2.75835 Q 5.032245849609375 2.796225 4.993620849609375 2.817975 Q 4.954995849609375 2.839725 4.903995849609375 2.839725 Q 4.854495849609375 2.839725 4.815870849609375 2.8191 Q 4.7772458496093755 2.7984750000000003 4.7551208496093755 2.76135 Q 4.732995849609376 2.724225 4.732995849609376 2.6739750000000004 M 4.802745849609376 2.674725 Q 4.802745849609376 2.7047250000000003 4.816245849609375 2.7291000000000003 Q 4.829745849609375 2.7534750000000003 4.852620849609375 2.7677250000000004 Q 4.875495849609375 2.781975 4.903245849609375 2.781975 Q 4.932495849609375 2.781975 4.955370849609375 2.7677250000000004 Q 4.978245849609375 2.7534750000000003 4.990995849609376 2.7291000000000003 Q 5.003745849609375 2.7047250000000003 5.003745849609375 2.674725 Q 5.003745849609375 2.644725 4.990995849609376 2.62035 Q 4.978245849609375 2.595975 4.955370849609375 2.58135 Q 4.932495849609375 2.5667250000000004 4.903245849609375 2.5667250000000004 Q 4.874745849609376 2.5667250000000004 4.851870849609375 2.581725 Q 4.828995849609375 2.596725 4.815870849609375 2.6211 Q 4.802745849609376 2.6454750000000002 4.802745849609376 2.674725 M 5.232108032226563 2.521725 L 5.238108032226563 2.597475 L 5.235108032226563 2.585475 Q 5.250108032226563 2.550975 5.283858032226563 2.5303500000000003 Q 5.317608032226563 2.5097250000000004 5.3618580322265625 2.5097250000000004 Q 5.406108032226562 2.5097250000000004 5.434233032226563 2.5356 Q 5.462358032226563 2.561475 5.463108032226563 2.6027250000000004 L 5.463108032226563 2.832225 L 5.392608032226563 2.832225 L 5.392608032226563 2.627475 Q 5.391858032226563 2.6019750000000004 5.377983032226563 2.58585 Q 5.364108032226563 2.569725 5.334858032226562 2.569725 Q 5.307858032226563 2.569725 5.286108032226562 2.584725 Q 5.264358032226562 2.5997250000000003 5.251983032226563 2.6259750000000004 Q 5.239608032226562 2.652225 5.239608032226562 2.686725 L 5.239608032226562 2.832225 L 5.169858032226562 2.832225 L 5.169858032226562 2.521725 L 5.232108032226563 2.521725 M 5.672716918945313 2.838225 Q 5.639716918945313 2.838225 5.608591918945312 2.8266 Q 5.577466918945313 2.814975 5.557216918945313 2.791725 L 5.586466918945312 2.7512250000000003 Q 5.605966918945313 2.769975 5.626591918945313 2.7793500000000004 Q 5.647216918945313 2.7887250000000003 5.667466918945313 2.7887250000000003 Q 5.6824669189453125 2.7887250000000003 5.695216918945313 2.784975 Q 5.707966918945313 2.781225 5.715841918945313 2.7726 Q 5.723716918945313 2.7639750000000003 5.723716918945313 2.748975 Q 5.723716918945313 2.732475 5.712841918945313 2.722725 Q 5.701966918945312 2.712975 5.685091918945313 2.7069750000000004 Q 5.668216918945313 2.700975 5.649466918945313 2.6957250000000004 Q 5.6112169189453125 2.6829750000000003 5.590966918945313 2.6604750000000004 Q 5.570716918945313 2.6379750000000004 5.570716918945313 2.605725 Q 5.570716918945313 2.580975 5.583091918945313 2.5596 Q 5.595466918945313 2.538225 5.619841918945313 2.524725 Q 5.644216918945313 2.511225 5.680216918945312 2.511225 Q 5.712466918945313 2.511225 5.737966918945313 2.5191000000000003 Q 5.763466918945313 2.526975 5.785966918945313 2.544975 L 5.758216918945313 2.5884750000000003 Q 5.744716918945313 2.574225 5.725966918945312 2.5674750000000004 Q 5.707216918945313 2.560725 5.692216918945313 2.559975 Q 5.679466918945312 2.559225 5.667841918945313 2.5637250000000003 Q 5.656216918945312 2.568225 5.648716918945313 2.5764750000000003 Q 5.641216918945313 2.584725 5.641216918945313 2.595975 Q 5.641216918945313 2.6117250000000003 5.651716918945313 2.621475 Q 5.662216918945313 2.631225 5.679091918945312 2.6368500000000004 Q 5.695966918945313 2.642475 5.712466918945313 2.6484750000000004 Q 5.735716918945313 2.655225 5.753716918945313 2.666475 Q 5.771716918945312 2.677725 5.782591918945313 2.6942250000000003 Q 5.793466918945313 2.710725 5.793466918945313 2.735475 Q 5.793466918945313 2.7632250000000003 5.780341918945313 2.7868500000000003 Q 5.767216918945313 2.8104750000000003 5.740591918945313 2.8243500000000004 Q 5.713966918945313 2.838225 5.672716918945313 2.838225" fill="#000000" fill-rule="nonzero"></path></g></g><defs><clipPath id="SvgjsClipPath89042"><path d=" M 0.4749601411703863 -4.8086669561757445 h 6.140381231331102 v 4.5586669561757445 h -6.140381231331102 Z"></path></clipPath><clipPath id="SvgjsClipPath89037fe73bde9-eb25-4e17-b1f3-941bfadd3fd7"><path d=" M 0.4749601411703863 -4.8086669561757445 L 6.615341372501488 -4.8086669561757445 L 6.615341372501488 -0.25 L 0.4749601411703863 -0.25 Z"></path></clipPath></defs></svg>