<svg xmlns="http://www.w3.org/2000/svg" version="1.1" xmlns:xlink="http://www.w3.org/1999/xlink" viewBox="0 0 16.613476395064804 6.285764618381725"><g transform="matrix(0.7671147177600424,0,0,0.7671147177600424,7.496469067530739,2.342440815550497)"><rect width="18.521746479518683" height="18.521746479518683" x="-8.20461775248668" y="-8.217428921577524" fill="#ffffff"></rect><g transform="matrix(1,0,0,1,0,0)" clip-path="url(#SvgjsClipPath4226)"><g clip-path="url(#SvgjsClipPath422118d8edd8-627e-43f7-b112-2a4e76b7414a)"><path d=" M -0.4077645307374107 3.0907662038572123 L -0.8177317536726312 2.089955165761034 C -0.8472989388411483 2.0176844976034856 -0.917639375002973 1.9704742879568602 -0.9957243773387621 1.970492314272607 L -5.70077118651761 1.970492314272607 C -5.778869655242925 1.9704592679182655 -5.849228502922254 2.017672027389068 -5.878800784139638 2.089955165761034 L -6.28865708520718 3.0907662038572123 C -6.301606705590551 3.1223971859683086 -6.297949001104379 3.158400462691003 -6.2789026060719655 3.1867808526399637 C -6.2598562110395495 3.215161242588926 -6.227924052353474 3.232189218937462 -6.193744940431322 3.232191585145741 L -0.5027136494691637 3.232191585145741 C -0.4685279905003963 3.23220154264213 -0.43658447059143324 3.215178598704874 -0.41752931072195754 3.18679620520769 C -0.39847415085247206 3.1584138117105063 -0.39481242795327987 3.1224032456239446 -0.4077645307374107 3.0907662038572132 Z M -2.8702299931729622 3.0512780189641022 L -3.8261916227716304 3.0512780189641022 C -3.858105829416044 3.0512780206258183 -3.8875957731803745 3.034251995025862 -3.903552876990555 3.006613481611902 C -3.9195099808007323 2.9789749681979414 -3.9195099808160285 2.9449229149418805 -3.9035528770306707 2.917284401513588 C -3.8875957732453177 2.889645888085295 -3.8581058294962793 2.8726198624588504 -3.8261916228518653 2.8726198640919014 L -2.8702669671288508 2.8726198640919014 C -2.8209318817451834 2.872619866660693 -2.780937894321801 2.91261385618445 -2.7809378943439595 2.96194894156812 C -2.7809378943661183 3.011284026951789 -2.8209318818254228 3.051278016439624 -2.87026696720909 3.0512780189641022 Z" fill="#006fbf" transform="matrix(1,0,0,1,0,0)" fill-rule="nonzero"></path></g><g clip-path="url(#SvgjsClipPath422118d8edd8-627e-43f7-b112-2a4e76b7414a)"><path d=" M -1.247332147186719 -0.9311128222972835 C -1.1465473248668916 -0.9323255394334375 -1.0638218137751076 -0.851684711221163 -1.0624623677245921 -0.7509017612776008 L -1.0624623677245921 1.3905558160999096 C -1.0638218137751076 1.4913387660434723 -1.1465473248668916 1.5719795942557464 -1.247332147186719 1.5707668771195926 L -2.526631021064648 1.5707668771195926 L -3.097250082352453 1.0002217637435715 C -3.1260788866457334 0.9712267601935405 -3.137007451519208 0.9289262865823702 -3.1258309502573 0.8895956877134343 C -3.0959929678521103 0.7832216166109254 -3.1070851546198437 0.6761080663905683 -3.165319135150412 0.6178740858599978 C -3.2445912965837698 0.5386019244266376 -3.4558604805530884 0.4455754514012946 -3.5592396612283137 0.4569264558602688 L -3.3306296919454446 0.6855364251431371 L -3.4287215969280527 0.9013534056872257 L -3.64453857747214 0.9994453106698311 L -3.8731485467550093 0.7708353413869631 C -3.884499551213984 0.8743624178857552 -3.7914730781886403 1.0854837060315055 -3.7122009167552825 1.164755867464866 C -3.65396693622471 1.2229898479954364 -3.546853386004353 1.2340820347631645 -3.440479314901844 1.204244052357977 C -3.4011487160329072 1.1930675510960678 -3.3588482424217374 1.2039961159695414 -3.329853238871708 1.2328249202628216 L -2.7777211555301133 1.7849570036044147 L -1.1101957447817163 1.7849570036044147 C -0.9936315366159221 1.7849365859813713 -0.8991484027595549 1.6904368993685448 -0.8991484045477547 1.5738726894145565 L -0.8991484045477547 -0.9342186345922474 C -0.8991484045477547 -1.0507828477844519 -0.9936315398538262 -1.145282532947825 -1.1101957480199305 -1.1453029487826727 L -3.7109438022549392 -1.1453029487826727 L -3.4967536757701185 -0.9311128222972835 Z" fill="#000000" transform="matrix(1,0,0,1,0,0)" fill-rule="nonzero"></path></g><g clip-path="url(#SvgjsClipPath422118d8edd8-627e-43f7-b112-2a4e76b7414a)"><path d=" M -5.5861519232510926 1.7849570036044147 L -2.985514787645546 1.7849570036044147 L -3.199704914130371 1.5707668771195926 L -5.449052494801977 1.5707668771195926 C -5.549837317121799 1.571979594255746 -5.6325628282135884 1.4913387660434723 -5.633922274264105 1.3905558160999096 L -5.633922274264105 -0.7509017612776008 C -5.6325628282135884 -0.8516847112211632 -5.549837317121799 -0.9323255394334375 -5.449052494801977 -0.9311128222972835 L -4.169753620924048 -0.9311128222972835 L -3.5992454815039205 -0.3605677089212628 C -3.5703955060373365 -0.33158476595105546 -3.5594637486692737 -0.2892719353621376 -3.570664613599078 -0.24994163289112503 C -3.6005025960042634 -0.14356756178861652 -3.5894104092365344 -0.036454011568259226 -3.531176428705966 0.021779968962311047 C -3.451904267272604 0.10105213039567174 -3.2406350833032858 0.19407860342101468 -3.1372559026280644 0.18272759896204027 L -3.3658658719109296 -0.04588237032082776 L -3.2677739669283254 -0.2616993508649166 L -3.051956986384238 -0.3597912558475216 L -2.8233470171013684 -0.13118128656465378 C -2.811996012642394 -0.23470836306344578 -2.905022485667734 -0.4458296512091964 -2.9842946471010956 -0.5251018126425568 C -3.0425286276316683 -0.5833357931731273 -3.149605203896132 -0.5944279799408551 -3.256016248954534 -0.5645899975356676 C -3.295346847823467 -0.5534134962737587 -3.3376473214346407 -0.5643420611472328 -3.36664232498467 -0.5931708654405126 L -3.9186265125026933 -1.1453029487821056 L -5.5861519232510926 -1.1453029487821056 C -5.702716131416887 -1.1452825311590629 -5.797199265273258 -1.0507828445462364 -5.79719926348506 -0.9342186345922474 L -5.79719926348506 1.5737987415027714 C -5.797218878794185 1.6297881879150504 -5.774993437504786 1.68349170458017 -5.735413320430563 1.723092624098524 C -5.6958332033563455 1.7626935436168776 -5.642141372240953 1.784947199815029 -5.586151923251042 1.7849570036044147 Z" fill="#006fbf" transform="matrix(1,0,0,1,0,0)" fill-rule="nonzero"></path></g></g><g><path d=" M 0.18 1.1452499999999999 Q 0.0615 1.0574999999999999 0.0525 0.8939999999999999 L 0.366 0.8939999999999999 Q 0.3705 0.9494999999999999 0.399 0.9749999999999999 Q 0.4275 1.0005 0.47250000000000003 1.0005 Q 0.513 1.0005 0.53925 0.98025 Q 0.5655 0.96 0.5655 0.9239999999999999 Q 0.5655 0.8775 0.522 0.8519999999999999 Q 0.47850000000000004 0.8264999999999999 0.381 0.7949999999999999 Q 0.2775 0.7605 0.21375 0.7282499999999998 Q 0.15 0.696 0.10275000000000001 0.6337499999999999 Q 0.0555 0.5714999999999999 0.0555 0.47099999999999986 Q 0.0555 0.3689999999999999 0.1065 0.2962499999999999 Q 0.1575 0.22349999999999992 0.2475 0.18599999999999994 Q 0.3375 0.14849999999999985 0.4515 0.14849999999999985 Q 0.636 0.14849999999999985 0.74625 0.2347499999999999 Q 0.8565 0.32099999999999995 0.864 0.47699999999999987 L 0.5445 0.47699999999999987 Q 0.543 0.42899999999999994 0.51525 0.4049999999999999 Q 0.4875 0.3809999999999999 0.444 0.3809999999999999 Q 0.41100000000000003 0.3809999999999999 0.39 0.40049999999999986 Q 0.369 0.41999999999999993 0.369 0.45599999999999985 Q 0.369 0.4859999999999999 0.39225 0.5077499999999999 Q 0.41550000000000004 0.5294999999999999 0.45 0.5452499999999999 Q 0.4845 0.5609999999999999 0.552 0.5849999999999999 Q 0.6525 0.6194999999999999 0.71775 0.6532499999999999 Q 0.783 0.6869999999999999 0.83025 0.7477499999999999 Q 0.8775000000000001 0.8084999999999999 0.8775000000000001 0.9015 Q 0.8775000000000001 0.9959999999999999 0.83025 1.071 Q 0.783 1.146 0.69375 1.1895 Q 0.6045 1.2329999999999999 0.483 1.2329999999999999 Q 0.2985 1.2329999999999999 0.18 1.1452499999999999 M 1.50899267578125 0.972 L 1.50899267578125 1.2225 L 1.38149267578125 1.2225 Q 1.05899267578125 1.2225 1.05899267578125 0.9029999999999999 L 1.05899267578125 0.6255 L 0.95549267578125 0.6255 L 0.95549267578125 0.3809999999999999 L 1.05899267578125 0.3809999999999999 L 1.05899267578125 0.17699999999999982 L 1.3544926757812499 0.17699999999999982 L 1.3544926757812499 0.3809999999999999 L 1.50749267578125 0.3809999999999999 L 1.50749267578125 0.6255 L 1.3544926757812499 0.6255 L 1.3544926757812499 0.9075 Q 1.3544926757812499 0.942 1.37024267578125 0.9569999999999999 Q 1.38599267578125 0.972 1.42349267578125 0.972 L 1.50899267578125 0.972 M 1.6417734375 0.573 Q 1.6890234375 0.4754999999999999 1.7707734375 0.42299999999999993 Q 1.8525234375 0.37049999999999994 1.9530234375 0.37049999999999994 Q 2.0400234375 0.37049999999999994 2.1030234375 0.4049999999999999 Q 2.1660234375 0.4394999999999999 2.2005234375 0.4979999999999999 L 2.2005234375 0.3809999999999999 L 2.4945234375 0.3809999999999999 L 2.4945234375 1.2225 L 2.2005234375 1.2225 L 2.2005234375 1.1055 Q 2.1660234375 1.164 2.1022734375 1.1985 Q 2.0385234375 1.2329999999999999 1.9530234375 1.2329999999999999 Q 1.8525234375 1.2329999999999999 1.7707734375 1.1804999999999999 Q 1.6890234375 1.128 1.6417734375 1.02975 Q 1.5945234375 0.9315 1.5945234375 0.8009999999999999 Q 1.5945234375 0.6704999999999999 1.6417734375 0.573 M 2.1562734375 0.6734999999999999 Q 2.1120234375 0.6269999999999999 2.0475234374999998 0.6269999999999999 Q 1.9815234375 0.6269999999999999 1.9380234374999998 0.67275 Q 1.8945234375 0.7184999999999999 1.8945234375 0.8009999999999999 Q 1.8945234375 0.8819999999999999 1.9380234374999998 0.9292499999999999 Q 1.9815234375 0.9764999999999999 2.0475234374999998 0.9764999999999999 Q 2.1120234375 0.9764999999999999 2.1562734375 0.9299999999999999 Q 2.2005234375 0.8835 2.2005234375 0.8009999999999999 Q 2.2005234375 0.7199999999999999 2.1562734375 0.6734999999999999 M 3.075012451171875 0.41549999999999987 Q 3.145512451171875 0.37349999999999994 3.2265124511718746 0.37349999999999994 L 3.2265124511718746 0.6869999999999999 L 3.144012451171875 0.6869999999999999 Q 3.048012451171875 0.6869999999999999 3.001512451171875 0.7244999999999999 Q 2.955012451171875 0.7619999999999999 2.955012451171875 0.855 L 2.955012451171875 1.2225 L 2.661012451171875 1.2225 L 2.661012451171875 0.3809999999999999 L 2.955012451171875 0.3809999999999999 L 2.955012451171875 0.5294999999999999 Q 3.004512451171875 0.4574999999999999 3.075012451171875 0.41549999999999987 M 4.06951318359375 0.6255 L 3.9375131835937496 0.6255 L 3.9375131835937496 1.2225 L 3.64201318359375 1.2225 L 3.64201318359375 0.6255 L 3.5505131835937496 0.6255 L 3.5505131835937496 0.3809999999999999 L 3.64201318359375 0.3809999999999999 L 3.64201318359375 0.37349999999999994 Q 3.64201318359375 0.2114999999999998 3.7372631835937495 0.12524999999999986 Q 3.8325131835937496 0.038999999999999924 4.01101318359375 0.038999999999999924 Q 4.04701318359375 0.038999999999999924 4.06651318359375 0.04049999999999998 L 4.06651318359375 0.2909999999999999 Q 4.05451318359375 0.28949999999999987 4.03351318359375 0.28949999999999987 Q 3.9855131835937496 0.28949999999999987 3.9630131835937497 0.3112499999999999 Q 3.9405131835937497 0.33299999999999985 3.9375131835937496 0.3809999999999999 L 4.06951318359375 0.3809999999999999 L 4.06951318359375 0.6255 M 5.033991943359375 0.3809999999999999 L 5.033991943359375 1.2225 L 4.738491943359374 1.2225 L 4.738491943359374 1.1025 Q 4.700991943359375 1.1595 4.634991943359375 1.19475 Q 4.568991943359375 1.23 4.4834919433593745 1.23 Q 4.336491943359374 1.23 4.251741943359375 1.1332499999999999 Q 4.166991943359375 1.0365 4.166991943359375 0.8699999999999999 L 4.166991943359375 0.3809999999999999 L 4.4594919433593745 0.3809999999999999 L 4.4594919433593745 0.8324999999999999 Q 4.4594919433593745 0.9044999999999999 4.497741943359375 0.9457499999999999 Q 4.535991943359375 0.9869999999999999 4.5989919433593744 0.9869999999999999 Q 4.663491943359375 0.9869999999999999 4.700991943359375 0.9457499999999999 Q 4.738491943359374 0.9044999999999999 4.738491943359374 0.8324999999999999 L 4.738491943359374 0.3809999999999999 L 5.033991943359375 0.3809999999999999 M 5.355703125 1.19475 Q 5.266453125 1.1564999999999999 5.214703125 1.08975 Q 5.162953125 1.023 5.156953124999999 0.9389999999999998 L 5.4419531249999995 0.9389999999999998 Q 5.447953125 0.9794999999999999 5.479453124999999 1.002 Q 5.5109531249999995 1.0245 5.557453124999999 1.0245 Q 5.593453125 1.0245 5.614453125 1.0094999999999998 Q 5.635453125 0.9944999999999999 5.635453125 0.9704999999999999 Q 5.635453125 0.9389999999999998 5.600953124999999 0.9239999999999999 Q 5.566453125 0.9089999999999999 5.486953124999999 0.8909999999999999 Q 5.396953125 0.8729999999999999 5.336953125 0.8504999999999999 Q 5.2769531249999995 0.8279999999999998 5.232703125 0.7769999999999999 Q 5.188453125 0.726 5.188453125 0.6389999999999999 Q 5.188453125 0.564 5.228953124999999 0.5032499999999999 Q 5.269453124999999 0.4424999999999999 5.3482031249999995 0.40649999999999986 Q 5.426953125 0.37049999999999994 5.537953125 0.37049999999999994 Q 5.702953125 0.37049999999999994 5.797453125 0.4514999999999999 Q 5.891953125 0.5324999999999999 5.906953124999999 0.6644999999999999 L 5.641453125 0.6644999999999999 Q 5.633953125 0.6239999999999999 5.6062031249999995 0.60225 Q 5.578453124999999 0.5804999999999999 5.531953124999999 0.5804999999999999 Q 5.495953125 0.5804999999999999 5.477203125 0.5939999999999999 Q 5.458453124999999 0.6074999999999999 5.458453124999999 0.6315 Q 5.458453124999999 0.6614999999999999 5.492953125 0.6772499999999999 Q 5.527453124999999 0.693 5.603953124999999 0.7094999999999999 Q 5.695453124999999 0.7289999999999999 5.756203125 0.7529999999999999 Q 5.8169531249999995 0.7769999999999999 5.8627031249999995 0.8302499999999999 Q 5.908453124999999 0.8835 5.908453124999999 0.9749999999999999 Q 5.908453124999999 1.0485 5.865703125 1.107 Q 5.822953125 1.1655 5.744203124999999 1.19925 Q 5.665453125 1.2329999999999999 5.5589531249999995 1.2329999999999999 Q 5.444953125 1.2329999999999999 5.355703125 1.19475 M 6.074192871093749 0.26024999999999987 Q 6.026942871093749 0.2174999999999998 6.026942871093749 0.1529999999999998 Q 6.026942871093749 0.08699999999999997 6.074192871093749 0.04349999999999987 Q 6.121442871093749 0 6.1994428710937495 0 Q 6.27594287109375 0 6.32319287109375 0.04349999999999987 Q 6.37044287109375 0.08699999999999997 6.37044287109375 0.1529999999999998 Q 6.37044287109375 0.2174999999999998 6.32319287109375 0.26024999999999987 Q 6.27594287109375 0.30299999999999994 6.1994428710937495 0.30299999999999994 Q 6.121442871093749 0.30299999999999994 6.074192871093749 0.26024999999999987 M 6.34494287109375 0.3809999999999999 L 6.34494287109375 1.2225 L 6.050942871093749 1.2225 L 6.050942871093749 0.3809999999999999 L 6.34494287109375 0.3809999999999999 M 6.677167968749999 1.1804999999999999 Q 6.57741796875 1.128 6.5204179687499995 1.0305 Q 6.463417968749999 0.9329999999999999 6.463417968749999 0.8009999999999999 Q 6.463417968749999 0.6704999999999999 6.5211679687499995 0.573 Q 6.57891796875 0.4754999999999999 6.678667968749999 0.42299999999999993 Q 6.7784179687499995 0.37049999999999994 6.90441796875 0.37049999999999994 Q 7.030417968749999 0.37049999999999994 7.1301679687499995 0.42299999999999993 Q 7.22991796875 0.4754999999999999 7.287667968749999 0.573 Q 7.34541796875 0.6704999999999999 7.34541796875 0.8009999999999999 Q 7.34541796875 0.9315 7.287667968749999 1.02975 Q 7.22991796875 1.128 7.1294179687499994 1.1804999999999999 Q 7.028917968749999 1.2329999999999999 6.90291796875 1.2329999999999999 Q 6.776917968749999 1.2329999999999999 6.677167968749999 1.1804999999999999 M 7.005667968749999 0.9322499999999999 Q 7.04691796875 0.8864999999999998 7.04691796875 0.8009999999999999 Q 7.04691796875 0.7154999999999999 7.005667968749999 0.6704999999999999 Q 6.964417968749999 0.6255 6.90441796875 0.6255 Q 6.844417968749999 0.6255 6.8039179687499995 0.6704999999999999 Q 6.76341796875 0.7154999999999999 6.76341796875 0.8009999999999999 Q 6.76341796875 0.8879999999999999 6.8024179687499995 0.9329999999999999 Q 6.841417968749999 0.978 6.90291796875 0.978 Q 6.964417968749999 0.978 7.005667968749999 0.9322499999999999 M 8.2453974609375 0.47024999999999995 Q 8.3308974609375 0.567 8.3308974609375 0.732 L 8.3308974609375 1.2225 L 8.0368974609375 1.2225 L 8.0368974609375 0.7709999999999999 Q 8.0368974609375 0.699 7.9993974609375 0.65775 Q 7.961897460937499 0.6164999999999999 7.8988974609375 0.6164999999999999 Q 7.8328974609375 0.6164999999999999 7.795397460937499 0.65775 Q 7.7578974609374995 0.699 7.7578974609374995 0.7709999999999999 L 7.7578974609374995 1.2225 L 7.463897460937499 1.2225 L 7.463897460937499 0.3809999999999999 L 7.7578974609374995 0.3809999999999999 L 7.7578974609374995 0.5009999999999999 Q 7.796897460937499 0.44399999999999995 7.862897460937499 0.40874999999999995 Q 7.9288974609375 0.37349999999999994 8.014397460937499 0.37349999999999994 Q 8.159897460937499 0.37349999999999994 8.2453974609375 0.47024999999999995" fill="#006fbf" fill-rule="nonzero"></path></g><g><path d=" M 0.11659090909090908 1.7548431818181816 L 0.11659090909090908 1.9859795454545452 Q 0.11659090909090908 2.020070454545454 0.12954545454545455 2.033025 Q 0.1425 2.045979545454545 0.1752272727272727 2.045979545454545 L 0.21886363636363634 2.045979545454545 L 0.21886363636363634 2.086888636363636 L 0.16772727272727272 2.086888636363636 Q 0.11727272727272726 2.086888636363636 0.09272727272727271 2.063365909090909 Q 0.06818181818181818 2.0398431818181817 0.06818181818181818 1.9859795454545452 L 0.06818181818181818 1.7548431818181816 L 0.01636363636363636 1.7548431818181816 L 0.01636363636363636 1.7146159090909088 L 0.06818181818181818 1.7146159090909088 L 0.06818181818181818 1.621206818181818 L 0.11659090909090908 1.621206818181818 L 0.11659090909090908 1.7146159090909088 L 0.21886363636363634 1.7146159090909088 L 0.21886363636363634 1.7548431818181816 L 0.11659090909090908 1.7548431818181816 M 0.6327395907315341 1.9191613636363634 L 0.3238759543678977 1.9191613636363634 Q 0.32592140891335225 1.9614340909090906 0.3443304998224431 1.9914340909090906 Q 0.36273959073153406 2.0214340909090907 0.3927395907315341 2.0367749999999996 Q 0.42273959073153405 2.052115909090909 0.4581941361860795 2.052115909090909 Q 0.5045577725497159 2.052115909090909 0.5362623180042614 2.029615909090909 Q 0.5679668634588068 2.007115909090909 0.5781941361860795 1.9689340909090907 L 0.6286486816406249 1.9689340909090907 Q 0.6150123180042613 2.023479545454545 0.5703532270951703 2.0579113636363635 Q 0.5256941361860795 2.0923431818181815 0.4581941361860795 2.0923431818181815 Q 0.4056941361860795 2.0923431818181815 0.3641032270951704 2.0688204545454543 Q 0.32251231800426133 2.045297727272727 0.2989895907315341 2.0020022727272724 Q 0.2754668634588068 1.958706818181818 0.2754668634588068 1.9007522727272725 Q 0.2754668634588068 1.842797727272727 0.29864868164062497 1.7991613636363635 Q 0.32183049982244316 1.7555249999999998 0.36342140891335223 1.7323431818181816 Q 0.4050123180042613 1.7091613636363634 0.4581941361860795 1.7091613636363634 Q 0.5113759543678977 1.7091613636363634 0.5512623180042613 1.7323431818181816 Q 0.591148681640625 1.7555249999999998 0.6126259543678977 1.7947295454545453 Q 0.6341032270951704 1.8339340909090907 0.6341032270951704 1.8816613636363635 Q 0.6341032270951704 1.906206818181818 0.6327395907315341 1.9191613636363634 M 0.5689895907315341 1.8093886363636362 Q 0.5516032270951704 1.7800704545454544 0.5216032270951704 1.7650704545454543 Q 0.4916032270951704 1.7500704545454542 0.45614868164062494 1.7500704545454542 Q 0.4029668634588068 1.7500704545454542 0.36546686345880675 1.7841613636363634 Q 0.32796686345880677 1.8182522727272725 0.3238759543678977 1.880297727272727 L 0.5856941361860795 1.880297727272727 Q 0.5863759543678977 1.838706818181818 0.5689895907315341 1.8093886363636362 M 0.7227459161931817 1.7995022727272725 Q 0.7459277343749999 1.756206818181818 0.7868368252840908 1.7326840909090906 Q 0.8277459161931817 1.7091613636363634 0.8802459161931817 1.7091613636363634 Q 0.9491095525568181 1.7091613636363634 0.993768643465909 1.7432522727272723 Q 1.038427734375 1.7773431818181815 1.0513822798295454 1.8359795454545451 L 1.0002459161931818 1.8359795454545451 Q 0.9907004616477272 1.7957522727272726 0.9589959161931817 1.7729113636363634 Q 0.9272913707386363 1.7500704545454542 0.8802459161931817 1.7500704545454542 Q 0.8427459161931817 1.7500704545454542 0.8127459161931817 1.7671159090909088 Q 0.7827459161931818 1.7841613636363634 0.7653595525568181 1.8179113636363633 Q 0.7479731889204545 1.8516613636363635 0.7479731889204545 1.9007522727272725 Q 0.7479731889204545 1.9498431818181816 0.7653595525568181 1.9839340909090906 Q 0.7827459161931818 2.0180249999999997 0.8127459161931817 2.0350704545454543 Q 0.8427459161931817 2.052115909090909 0.8802459161931817 2.052115909090909 Q 0.9272913707386363 2.052115909090909 0.9589959161931817 2.0292749999999997 Q 0.9907004616477272 2.0064340909090905 1.0002459161931818 1.9655249999999997 L 1.0513822798295454 1.9655249999999997 Q 1.038427734375 2.022797727272727 0.9934277343749999 2.0575704545454543 Q 0.9484277343749998 2.0923431818181815 0.8802459161931817 2.0923431818181815 Q 0.8277459161931817 2.0923431818181815 0.7868368252840908 2.0688204545454543 Q 0.7459277343749999 2.045297727272727 0.7227459161931817 2.0020022727272724 Q 0.6995640980113635 1.958706818181818 0.6995640980113635 1.9007522727272725 Q 0.6995640980113635 1.842797727272727 0.7227459161931817 1.7995022727272725 M 1.392615966796875 1.7255249999999998 Q 1.4263659667968749 1.7432522727272723 1.445797784978693 1.7797295454545452 Q 1.4652296031605112 1.816206818181818 1.4652296031605112 1.8687068181818178 L 1.4652296031605112 2.086888636363636 L 1.4181841486150568 2.086888636363636 L 1.4181841486150568 1.8741613636363634 Q 1.4181841486150568 1.8134795454545451 1.3878432395241476 1.7814340909090907 Q 1.3575023304332385 1.7493886363636362 1.3050023304332385 1.7493886363636362 Q 1.251138694069602 1.7493886363636362 1.2190932395241476 1.7834795454545451 Q 1.1870477849786931 1.8175704545454543 1.1870477849786931 1.883706818181818 L 1.1870477849786931 2.086888636363636 L 1.1393205122514203 2.086888636363636 L 1.1393205122514203 1.5823431818181817 L 1.1870477849786931 1.5823431818181817 L 1.1870477849786931 1.7780249999999997 Q 1.204775057705966 1.7446159090909088 1.2392068758877839 1.726206818181818 Q 1.2736386940696023 1.7077977272727272 1.3165932395241478 1.7077977272727272 Q 1.3588659667968748 1.7077977272727272 1.392615966796875 1.7255249999999998 M 1.7812403453480115 2.0626840909090904 Q 1.7406721635298297 2.033025 1.7358994362571023 1.981888636363636 L 1.7849903453480114 1.981888636363636 Q 1.7883994362571023 2.0132522727272724 1.8146494362571024 2.0326840909090906 Q 1.8408994362571023 2.052115909090909 1.8852176180752842 2.052115909090909 Q 1.9240812544389205 2.052115909090909 1.9462403453480115 2.033706818181818 Q 1.9683994362571022 2.015297727272727 1.9683994362571022 1.9880249999999997 Q 1.9683994362571022 1.9689340909090907 1.956126708984375 1.9566613636363634 Q 1.9438539817116478 1.944388636363636 1.9251039817116478 1.9372295454545452 Q 1.9063539817116477 1.9300704545454543 1.8743085271661932 1.921888636363636 Q 1.8327176180752842 1.9109795454545453 1.8068085271661931 1.9000704545454543 Q 1.7808994362571022 1.8891613636363633 1.7628312544389204 1.8676840909090906 Q 1.7447630726207386 1.8462068181818179 1.7447630726207386 1.8100704545454542 Q 1.7447630726207386 1.782797727272727 1.761126708984375 1.759615909090909 Q 1.7774903453480113 1.7364340909090907 1.8074903453480113 1.722797727272727 Q 1.8374903453480114 1.7091613636363634 1.8756721635298295 1.7091613636363634 Q 1.9356721635298295 1.7091613636363634 1.9724903453480114 1.7395022727272724 Q 2.0093085271661932 1.7698431818181817 2.012035799893466 1.8230249999999997 L 1.9643085271661933 1.8230249999999997 Q 1.9622630726207386 1.790297727272727 1.9387403453480114 1.7701840909090907 Q 1.915217618075284 1.7500704545454542 1.8743085271661932 1.7500704545454542 Q 1.8381721635298296 1.7500704545454542 1.8156721635298296 1.7671159090909088 Q 1.7931721635298297 1.7841613636363634 1.7931721635298297 1.8093886363636362 Q 1.7931721635298297 1.831206818181818 1.806467618075284 1.8451840909090906 Q 1.8197630726207388 1.8591613636363633 1.8395357998934658 1.8670022727272724 Q 1.8593085271661933 1.8748431818181817 1.892717618075284 1.8843886363636362 Q 1.9329448908025568 1.895297727272727 1.9568085271661932 1.9055249999999997 Q 1.9806721635298294 1.9157522727272724 1.997717618075284 1.9355249999999997 Q 2.0147630726207386 1.955297727272727 2.0154448908025566 1.9880249999999997 Q 2.0154448908025566 2.0180249999999997 1.9990812544389205 2.041547727272727 Q 1.9827176180752841 2.065070454545454 1.9533994362571023 2.078706818181818 Q 1.9240812544389205 2.0923431818181815 1.8858994362571022 2.0923431818181815 Q 1.8218085271661932 2.0923431818181815 1.7812403453480115 2.0626840909090904 M 2.173974276455966 2.0688204545454543 Q 2.1320424582741477 2.045297727272727 2.1078379128196025 2.0020022727272724 Q 2.083633367365057 1.958706818181818 2.083633367365057 1.9007522727272725 Q 2.083633367365057 1.842797727272727 2.1081788219105113 1.7995022727272725 Q 2.132724276455966 1.756206818181818 2.174997003728693 1.7326840909090906 Q 2.2172697310014207 1.7091613636363634 2.2697697310014204 1.7091613636363634 Q 2.3222697310014206 1.7091613636363634 2.364883367365057 1.7326840909090906 Q 2.407497003728693 1.756206818181818 2.4317015491832388 1.7995022727272725 Q 2.455906094637784 1.842797727272727 2.455906094637784 1.9007522727272725 Q 2.455906094637784 1.9580249999999997 2.4313606400923296 2.001661363636363 Q 2.406815185546875 2.045297727272727 2.3638606400923297 2.0688204545454543 Q 2.320906094637784 2.0923431818181815 2.268406094637784 2.0923431818181815 Q 2.215906094637784 2.0923431818181815 2.173974276455966 2.0688204545454543 M 2.3365879128196023 2.034047727272727 Q 2.3679515491832386 2.0173431818181817 2.387383367365057 1.9835931818181816 Q 2.406815185546875 1.9498431818181816 2.406815185546875 1.9007522727272725 Q 2.406815185546875 1.8516613636363635 2.387724276455966 1.8179113636363633 Q 2.368633367365057 1.7841613636363634 2.3372697310014203 1.767456818181818 Q 2.305906094637784 1.7507522727272724 2.2690879128196024 1.7507522727272724 Q 2.2322697310014203 1.7507522727272724 2.200906094637784 1.767456818181818 Q 2.169542458274148 1.7841613636363634 2.150792458274148 1.8179113636363633 Q 2.1320424582741477 1.8516613636363635 2.1320424582741477 1.9007522727272725 Q 2.1320424582741477 1.9498431818181816 2.150792458274148 1.9835931818181816 Q 2.169542458274148 2.0173431818181817 2.200565185546875 2.034047727272727 Q 2.2315879128196023 2.0507522727272725 2.268406094637784 2.0507522727272725 Q 2.305224276455966 2.0507522727272725 2.3365879128196023 2.034047727272727 M 2.5909257368607954 1.5823431818181817 L 2.5909257368607954 2.086888636363636 L 2.543198464133523 2.086888636363636 L 2.543198464133523 1.5823431818181817 L 2.5909257368607954 1.5823431818181817 M 3.021837491122159 1.7146159090909088 L 3.021837491122159 2.086888636363636 L 2.974110218394886 2.086888636363636 L 2.974110218394886 2.0214340909090907 Q 2.95774658203125 2.056206818181818 2.923655672940341 2.074615909090909 Q 2.8895647638494317 2.093025 2.8472920365767047 2.093025 Q 2.780473854758523 2.093025 2.7382011274857954 2.0517749999999997 Q 2.6959284002130683 2.010525 2.6959284002130683 1.9321159090909088 L 2.6959284002130683 1.7146159090909088 L 2.7429738547585227 1.7146159090909088 L 2.7429738547585227 1.9266613636363634 Q 2.7429738547585227 1.9873431818181815 2.7733147638494318 2.019388636363636 Q 2.803655672940341 2.0514340909090905 2.856155672940341 2.0514340909090905 Q 2.9100193093039772 2.0514340909090905 2.942064763849432 2.0173431818181817 Q 2.974110218394886 1.9832522727272726 2.974110218394886 1.917115909090909 L 2.974110218394886 1.7146159090909088 L 3.021837491122159 1.7146159090909088 M 3.192970858487216 1.7548431818181816 L 3.192970858487216 1.9859795454545452 Q 3.192970858487216 2.020070454545454 3.205925403941761 2.033025 Q 3.2188799493963067 2.045979545454545 3.2516072221235794 2.045979545454545 L 3.295243585759943 2.045979545454545 L 3.295243585759943 2.086888636363636 L 3.2441072221235796 2.086888636363636 Q 3.193652676669034 2.086888636363636 3.1691072221235794 2.063365909090909 Q 3.144561767578125 2.0398431818181817 3.144561767578125 1.9859795454545452 L 3.144561767578125 1.7548431818181816 L 3.0927435857599432 1.7548431818181816 L 3.0927435857599432 1.7146159090909088 L 3.144561767578125 1.7146159090909088 L 3.144561767578125 1.621206818181818 L 3.192970858487216 1.621206818181818 L 3.192970858487216 1.7146159090909088 L 3.295243585759943 1.7146159090909088 L 3.295243585759943 1.7548431818181816 L 3.192970858487216 1.7548431818181816 M 3.372983176491477 1.6341613636363634 Q 3.3627559037642043 1.6239340909090907 3.3627559037642043 1.6089340909090906 Q 3.3627559037642043 1.5939340909090907 3.372983176491477 1.584047727272727 Q 3.38321044921875 1.5741613636363634 3.397528631036932 1.5741613636363634 Q 3.4118468128551136 1.5741613636363634 3.4220740855823863 1.584047727272727 Q 3.432301358309659 1.5939340909090907 3.432301358309659 1.6089340909090906 Q 3.432301358309659 1.6239340909090907 3.4220740855823863 1.6341613636363634 Q 3.4118468128551136 1.6443886363636362 3.397528631036932 1.6443886363636362 Q 3.38321044921875 1.6443886363636362 3.372983176491477 1.6341613636363634 M 3.421392267400568 1.7146159090909088 L 3.421392267400568 2.086888636363636 L 3.3736649946732955 2.086888636363636 L 3.3736649946732955 1.7146159090909088 L 3.421392267400568 1.7146159090909088 M 3.598326748934659 2.0688204545454543 Q 3.5563949307528406 2.045297727272727 3.5321903852982954 2.0020022727272724 Q 3.50798583984375 1.958706818181818 3.50798583984375 1.9007522727272725 Q 3.50798583984375 1.842797727272727 3.532531294389204 1.7995022727272725 Q 3.557076748934659 1.756206818181818 3.599349476207386 1.7326840909090906 Q 3.6416222034801136 1.7091613636363634 3.6941222034801133 1.7091613636363634 Q 3.7466222034801135 1.7091613636363634 3.78923583984375 1.7326840909090906 Q 3.831849476207386 1.756206818181818 3.8560540216619317 1.7995022727272725 Q 3.880258567116477 1.842797727272727 3.880258567116477 1.9007522727272725 Q 3.880258567116477 1.9580249999999997 3.8557131125710224 2.001661363636363 Q 3.831167658025568 2.045297727272727 3.7882131125710226 2.0688204545454543 Q 3.745258567116477 2.0923431818181815 3.692758567116477 2.0923431818181815 Q 3.640258567116477 2.0923431818181815 3.598326748934659 2.0688204545454543 M 3.760940385298295 2.034047727272727 Q 3.7923040216619315 2.0173431818181817 3.8117358398437498 1.9835931818181816 Q 3.831167658025568 1.9498431818181816 3.831167658025568 1.9007522727272725 Q 3.831167658025568 1.8516613636363635 3.812076748934659 1.8179113636363633 Q 3.79298583984375 1.7841613636363634 3.7616222034801132 1.767456818181818 Q 3.730258567116477 1.7507522727272724 3.6934403852982953 1.7507522727272724 Q 3.6566222034801132 1.7507522727272724 3.625258567116477 1.767456818181818 Q 3.5938949307528407 1.7841613636363634 3.575144930752841 1.8179113636363633 Q 3.5563949307528406 1.8516613636363635 3.5563949307528406 1.9007522727272725 Q 3.5563949307528406 1.9498431818181816 3.575144930752841 1.9835931818181816 Q 3.5938949307528407 2.0173431818181817 3.624917658025568 2.034047727272727 Q 3.6559403852982952 2.0507522727272725 3.692758567116477 2.0507522727272725 Q 3.729576748934659 2.0507522727272725 3.760940385298295 2.034047727272727 M 4.25118730024858 1.749047727272727 Q 4.293460027521307 1.790297727272727 4.293460027521307 1.8687068181818178 L 4.293460027521307 2.086888636363636 L 4.246414572975852 2.086888636363636 L 4.246414572975852 1.8741613636363634 Q 4.246414572975852 1.8134795454545451 4.216073663884943 1.7814340909090907 Q 4.185732754794034 1.7493886363636362 4.133232754794034 1.7493886363636362 Q 4.079369118430398 1.7493886363636362 4.047323663884943 1.7834795454545451 Q 4.015278209339488 1.8175704545454543 4.015278209339488 1.883706818181818 L 4.015278209339488 2.086888636363636 L 3.967550936612216 2.086888636363636 L 3.967550936612216 1.7146159090909088 L 4.015278209339488 1.7146159090909088 L 4.015278209339488 1.7780249999999997 Q 4.033005482066761 1.7439340909090908 4.0664145729758525 1.725865909090909 Q 4.099823663884943 1.7077977272727272 4.14209639115767 1.7077977272727272 Q 4.208914572975852 1.7077977272727272 4.25118730024858 1.749047727272727 M 4.422661576704545 2.0626840909090904 Q 4.382093394886363 2.033025 4.3773206676136365 1.981888636363636 L 4.426411576704545 1.981888636363636 Q 4.429820667613636 2.0132522727272724 4.456070667613636 2.0326840909090906 Q 4.482320667613636 2.052115909090909 4.5266388494318175 2.052115909090909 Q 4.565502485795454 2.052115909090909 4.587661576704545 2.033706818181818 Q 4.609820667613636 2.015297727272727 4.609820667613636 1.9880249999999997 Q 4.609820667613636 1.9689340909090907 4.597547940340909 1.9566613636363634 Q 4.585275213068181 1.944388636363636 4.566525213068181 1.9372295454545452 Q 4.547775213068181 1.9300704545454543 4.515729758522727 1.921888636363636 Q 4.474138849431818 1.9109795454545453 4.448229758522727 1.9000704545454543 Q 4.422320667613636 1.8891613636363633 4.404252485795454 1.8676840909090906 Q 4.386184303977273 1.8462068181818179 4.386184303977273 1.8100704545454542 Q 4.386184303977273 1.782797727272727 4.4025479403409085 1.759615909090909 Q 4.418911576704545 1.7364340909090907 4.448911576704545 1.722797727272727 Q 4.4789115767045455 1.7091613636363634 4.517093394886364 1.7091613636363634 Q 4.577093394886363 1.7091613636363634 4.613911576704545 1.7395022727272724 Q 4.6507297585227265 1.7698431818181817 4.653457031249999 1.8230249999999997 L 4.605729758522727 1.8230249999999997 Q 4.603684303977272 1.790297727272727 4.580161576704545 1.7701840909090907 Q 4.556638849431818 1.7500704545454542 4.515729758522727 1.7500704545454542 Q 4.479593394886363 1.7500704545454542 4.457093394886363 1.7671159090909088 Q 4.434593394886363 1.7841613636363634 4.434593394886363 1.8093886363636362 Q 4.434593394886363 1.831206818181818 4.447888849431818 1.8451840909090906 Q 4.461184303977272 1.8591613636363633 4.48095703125 1.8670022727272724 Q 4.500729758522727 1.8748431818181817 4.534138849431818 1.8843886363636362 Q 4.57436612215909 1.895297727272727 4.598229758522727 1.9055249999999997 Q 4.622093394886363 1.9157522727272724 4.639138849431818 1.9355249999999997 Q 4.656184303977272 1.955297727272727 4.656866122159091 1.9880249999999997 Q 4.656866122159091 2.0180249999999997 4.640502485795454 2.041547727272727 Q 4.624138849431818 2.065070454545454 4.594820667613636 2.078706818181818 Q 4.565502485795454 2.0923431818181815 4.527320667613636 2.0923431818181815 Q 4.4632297585227265 2.0923431818181815 4.422661576704545 2.0626840909090904" fill="#000000" fill-rule="nonzero"></path></g></g><defs><clipPath id="SvgjsClipPath4226"><path d=" M -6.296347668032802 -1.1453029487821056 h 5.896347668032802 v 4.377494533927847 h -5.896347668032802 Z"></path></clipPath><clipPath id="SvgjsClipPath422118d8edd8-627e-43f7-b112-2a4e76b7414a"><path d=" M -6.296347668032802 -1.1453029487821056 L -0.40000000000000036 -1.1453029487821056 L -0.40000000000000036 3.232191585145742 L -6.296347668032802 3.232191585145742 Z"></path></clipPath></defs></svg>